<svg width="100" height="100" viewBox="0 0 100 100" fill="none" xmlns="http://www.w3.org/2000/svg">
<g clip-path="url(#clip0_265_3)">
<path d="M50 2C76.5097 2 98 23.4903 98 50C98 76.5097 76.5097 98 50 98C23.4903 98 2 76.5097 2 50C2 23.4903 23.4903 2 50 2Z" fill="#4A71C4" stroke="white" stroke-width="4"/>
<path d="M97.538 28.8303C97.5504 28.8644 97.5675 28.9338 97.5534 29.049L97.5526 29.0495C97.5288 29.2353 97.4272 29.5154 97.1748 29.8226C96.9242 30.1275 96.5726 30.3987 96.1675 30.5811L96.1021 30.6106L96.0391 30.6442L64.6989 47.5609L62.8723 48.5467L69.5009 59.8058C69.5178 59.8346 69.5529 59.9123 69.5311 60.0747C69.5078 60.2478 69.4189 60.4999 69.204 60.7818C68.9901 61.0622 68.6866 61.3245 68.3231 61.5202C67.9591 61.7161 67.5857 61.8178 67.2596 61.837L67.2082 61.8401L67.156 61.8458L3.55568 68.9414C3.04969 68.9913 2.78976 68.8443 2.71027 68.7739C2.67292 68.7408 2.65374 68.7106 2.64191 68.677C2.62931 68.6411 2.6139 68.5686 2.62974 68.4484C2.6591 68.2481 2.77479 67.9518 3.05189 67.6333C3.32997 67.3137 3.71302 67.0401 4.1417 66.8704L4.1869 66.8529L4.23062 66.8328L37.0792 51.97L39.1547 51.0315L37.9555 49.0948L31.1085 38.0402C31.0898 38.0085 31.0134 37.8519 31.1454 37.5119C31.2852 37.1521 31.6204 36.7258 32.1429 36.4056C32.5269 36.1828 32.9 36.0686 33.2318 36.032L33.2466 36.0301L96.6126 28.575C96.856 28.5484 97.055 28.5686 97.2019 28.6077C97.3472 28.6465 97.4297 28.6997 97.4706 28.7351C97.5085 28.7679 97.5264 28.7985 97.538 28.8303Z" fill="#FFDC73" stroke="white" stroke-width="4"/>
</g>
<defs>
<clipPath id="clip0_265_3">
<rect width="100" height="100" fill="white"/>
</clipPath>
</defs>
</svg>
