<svg width="100" height="100" viewBox="0 0 100 100" fill="none" xmlns="http://www.w3.org/2000/svg">
<g clip-path="url(#clip0_265_16)">
<path d="M50 0.999996C77.062 0.999996 99 22.938 99 50C99 77.0619 77.062 99 50 99C22.9381 99 1 77.0619 1 50C1 22.938 22.9381 0.999996 50 0.999996Z" fill="#4A71C4" stroke="#FFDC73" stroke-width="2"/>
<path d="M43.1954 31.9165L71.2661 14.6157C73.2045 13.4209 71.9587 10.4331 69.7457 10.9693L20.378 22.9315C18.8792 23.2947 18.338 25.1459 19.4051 26.2592L40.8347 48.6161C41.5763 49.3897 41.5763 50.6103 40.8347 51.384L19.4051 73.7408C18.338 74.8541 18.8792 76.7053 20.378 77.0685L69.7457 89.0307C71.9587 89.5669 73.2045 86.5791 71.2661 85.3843L43.1954 68.0835C42.1191 67.4202 41.9206 65.9371 42.7846 65.0141L55.5593 51.3668C56.2792 50.5978 56.2792 49.4022 55.5593 48.6332L42.7846 34.9859C41.9206 34.0629 42.1191 32.5798 43.1954 31.9165Z" fill="#FFDC73"/>
</g>
<defs>
<clipPath id="clip0_265_16">
<rect width="100" height="100" fill="white"/>
</clipPath>
</defs>
</svg>
