<svg width="100" height="100" viewBox="0 0 100 100" fill="none" xmlns="http://www.w3.org/2000/svg">
<g clip-path="url(#clip0_265_16)">
<path d="M50 0.999996C77.062 0.999996 99 22.938 99 50C99 77.0619 77.062 99 50 99C22.9381 99 1 77.0619 1 50C1 22.938 22.9381 0.999996 50 0.999996Z" fill="#4A71C4" stroke="#FFDC73" stroke-width="2"/>
<path d="M40.611 33.7613L62.9277 12.3492C64.635 10.7112 62.5849 7.98843 60.5388 9.17651L19.3105 33.1155C18.0099 33.8707 17.9768 35.7373 19.2498 36.538L43.8029 51.9827C44.8165 52.6203 45.0465 53.9996 44.2946 54.9315L24.0077 80.0765C22.9523 81.3846 23.8834 83.3323 25.5643 83.3323L74.3882 83.3323C76.707 83.3323 77.1676 80.0473 74.9383 79.4094L45.1982 70.9008C43.9179 70.5345 43.3464 69.0428 44.0542 67.9149L55.3041 49.9872C55.8568 49.1064 55.6423 47.9489 54.8107 47.3246L40.7951 36.804C39.8086 36.0635 39.721 34.6153 40.611 33.7613Z" fill="#FFDC73"/>
</g>
<defs>
<clipPath id="clip0_265_16">
<rect width="100" height="100" fill="white"/>
</clipPath>
</defs>
</svg>
