<svg width="100" height="100" viewBox="0 0 100 100" fill="none" xmlns="http://www.w3.org/2000/svg">
<g clip-path="url(#clip0_265_16)">
<path d="M50 0.999996C77.062 0.999996 99 22.938 99 50C99 77.0619 77.062 99 50 99C22.9381 99 1 77.0619 1 50C1 22.938 22.9381 0.999996 50 0.999996Z" fill="#4A71C4" stroke="#FFDC73" stroke-width="2"/>
<path d="M41.6198 35.3825L60.2066 17.5491C61.9139 15.911 59.8638 13.1883 57.8177 14.3764L22.6432 34.8003C21.3426 35.5554 21.3095 37.422 22.5826 38.2228L44.1087 51.7634C45.1223 52.401 45.3523 53.7803 44.6004 54.7122L26.8302 76.7378C25.7748 78.0459 26.7059 79.9936 28.3868 79.9936L70.2513 79.9936C72.5701 79.9936 73.0307 76.7085 70.8014 76.0707L45.8213 68.9239C44.5411 68.5576 43.9696 67.0659 44.6774 65.938L54.5159 50.2595C55.0686 49.3787 54.8541 48.2212 54.0224 47.5969L41.8038 38.4252C40.8173 37.6847 40.7298 36.2365 41.6198 35.3825Z" fill="#FFDC73"/>
</g>
<defs>
<clipPath id="clip0_265_16">
<rect width="100" height="100" fill="white"/>
</clipPath>
</defs>
</svg>
